# xmcd CD database file
#
# Track frame offsets:
#	150
#	14240
#	28890
#	43465
#	57200
#	72850
#	87672
#	102340
#	116727
#	132887
#	147712
#	161795
#	176055
#	189210
#	202567
#	217905
#	232092
#	243720
#	256730
#	269320
#	283315
#	296062
#
# Disc length: 4102 seconds
#
# Revision: 1
# Processed by: cddbd v1.4PL0 Copyright (c) Steve Scherf et al.
# Submitted via: CDex 1.50Beta7
#
DISCID=63100416
DTITLE=Alger ''Texas'' Alexander - Complete Recorded Works, Vol. 3 (1930 - 1950)
DYEAR=1990
DGENRE=Blues
TTITLE0=Last Stage Blues (1930)
TTITLE1=Stealing to Her Man (1930)
TTITLE2=She's So Fair (1930)
TTITLE3=Rolling and Stumbling Blues (1930)
TTITLE4=Frost Texas Tornado Blues (1930)
TTITLE5=Texas Troublesome Blues (1930)
TTITLE6=Blues in My Mind (1934)
TTITLE7=Mistreatin' Woman (1934)
TTITLE8=Polo Blues (1934)
TTITLE9=Normangee Blues (1934)
TTITLE10=Worried Blues (1934)
TTITLE11=Prarie Dog Blues (1934)
TTITLE12=Justice Blues (1934)
TTITLE13=Katy Crossing Blues (1934)
TTITLE14=Lonesome Blues (1934)
TTITLE15=Lonesome Valley Blues (1934)
TTITLE16=One Morning Blues (1934)
TTITLE17=Deceitful Blues (1934)
TTITLE18=Easy Rider Blues (1934)
TTITLE19=Good Feelin' Blues (1934)
TTITLE20=Bottoms Blues (1950)
TTITLE21=Cross Roads (1950)
EXTD=YEAR: 1990
EXTT0=
EXTT1=
EXTT2=
EXTT3=
EXTT4=
EXTT5=
EXTT6=
EXTT7=
EXTT8=
EXTT9=
EXTT10=
EXTT11=
EXTT12=
EXTT13=
EXTT14=
EXTT15=
EXTT16=
EXTT17=
EXTT18=
EXTT19=
EXTT20=
EXTT21=
PLAYORDER=
